<?xml version='1.0' encoding='iso-8859-1'?>
<svg version="1.1" xmlns="http://www.w3.org/2000/svg" viewBox="0 0 409.053 409.053" xmlns:xlink="http://www.w3.org/1999/xlink" enable-background="new 0 0 409.053 409.053">
  <path d="m185.97,213.35c0.559-1.657 0.559-3.451 0-5.107-7.213-21.415-23.335-35.252-41.072-35.252-17.738,0-33.859,13.837-41.072,35.252-0.558,1.656-0.558,3.45 0,5.106 7.212,21.414 23.333,35.25 41.072,35.25 17.738,0 33.86-13.836 41.072-35.249zm-41.073,19.249c-10.124,0-19.729-8.47-24.978-21.803 5.25-13.334 14.854-21.806 24.978-21.806s19.728,8.471 24.979,21.806c-5.25,13.333-14.855,21.803-24.979,21.803zm8-24.327v5.047c0,4.418-3.582,8-8,8s-8-3.582-8-8v-5.047c0-4.418 3.582-8 8-8s8,3.582 8,8zm152.33-.03c-7.213-21.415-23.335-35.252-41.072-35.252-17.738,0-33.859,13.837-41.072,35.252-0.558,1.656-0.558,3.45 0,5.106 7.212,21.414 23.334,35.25 41.072,35.25s33.86-13.836 41.072-35.25c0.558-1.655 0.558-3.449 0-5.106zm-41.073,24.357c-10.124,0-19.729-8.47-24.978-21.803 5.25-13.334 14.854-21.806 24.978-21.806s19.728,8.471 24.979,21.806c-5.25,13.333-14.855,21.803-24.979,21.803zm136.899,78.368c4.418,0 8-3.582 8-8s-3.582-8-8-8h-61.589c29.087-30.978 38.915-74.303 25.856-113.993 6.954-4.45 11.793-11.575 13.438-20.169l19.243-100.462c4.012-20.946-1.413-38.692-13.821-45.209-8.38-4.4-22.599-5.354-42.756,15.103-15.146,15.369-37.63,35.353-56.801,52.272-15.812-9.428-45.915-15.304-80.098-15.304-34.184,0-64.287,5.876-80.099,15.305-19.172-16.923-41.637-36.89-56.799-52.275-20.155-20.455-34.375-19.503-42.753-15.103-12.409,6.517-17.835,24.263-13.824,45.21 0,0 9.566,50.334 9.941,51.9l9.302,48.561c1.646,8.595 6.484,15.721 13.44,20.17-13.059,39.692-3.231,83.016 25.856,113.993h-61.589c-4.418,0-8,3.582-8,8s3.582,8 8,8h78.304l21.807,20.435-95.225,23.793c-4.286,1.071-6.893,5.414-5.822,9.701 1.072,4.286 5.413,6.893 9.701,5.822l105.24-26.296 25.729,24.109c19.903,18.651 38.348,27.977 56.792,27.977 18.443,0 36.888-9.325 56.791-27.976l25.73-24.11 105.24,26.296c4.289,1.072 8.63-1.536 9.701-5.822 1.07-4.287-1.536-8.63-5.822-9.701l-95.225-23.793 21.808-20.435h78.304zm-141.247-15.999c-4.418,0-8,3.582-8,8s3.582,8 8,8h39.545l-16.882,15.818-24.314-6.075c-4.293-1.071-8.631,1.536-9.701,5.822-1.07,4.287 1.536,8.63 5.822,9.701l14.299,3.573-18.196,17.051c-17.207,16.124-31.776,23.633-45.853,23.633-14.075,0-28.645-7.509-45.852-23.633l-18.195-17.051 14.299-3.573c4.286-1.071 6.893-5.414 5.822-9.701-1.071-4.286-5.407-6.893-9.701-5.822l-24.314,6.075-16.881-15.818h39.543c4.418,0 8-3.582 8-8s-3.582-8-8-8h-56.619l-6.612-6.196c-8.702-8.154-15.71-17.487-20.919-27.545 8.476,5.247 18.527,8.797 29.578,10.145 4.4,0.539 8.376-2.588 8.909-6.974 0.534-4.386-2.588-8.375-6.974-8.909-26.118-3.183-40.104-20.187-42.474-35.767-0.482-13.359 1.804-26.909 7.036-39.871 0.841-2.081 0.768-4.419-0.2-6.444s-2.741-3.55-4.888-4.204c-5.248-1.598-9.016-5.862-10.077-11.407l-2.517-13.135c9.139,6.492 20.419,10.878 32.993,12.411 4.39,0.537 8.374-2.588 8.909-6.974 0.534-4.386-2.588-8.375-6.974-8.909-24.395-2.973-38.205-18.004-41.852-32.671l-9.804-51.184c-2.839-14.826 0.74-25.51 5.549-28.036 3.666-1.926 9.807,0.274 16.868,5.813 0.164,0.188 0.339,0.369 0.523,0.543 28.26,26.758 42.806,54.52 45.776,87.37 0.397,4.4 4.287,7.652 8.688,7.247 4.4-0.397 7.645-4.288 7.247-8.688-1.158-12.801-3.849-24.888-8.169-36.448 5.284,4.691 10.467,9.262 15.362,13.579 3.052,2.691 7.638,2.664 10.656-0.066 8.487-7.674 37.063-15.442 75.26-15.442 38.195,0 66.771,7.768 75.259,15.442 3.019,2.729 7.605,2.757 10.657,0.066l.093-.083c4.444-3.919 9.127-8.049 13.906-12.288-3.913,10.545-6.754,22.254-7.928,35.241-0.397,4.4 2.848,8.29 7.248,8.688 4.388,0.409 8.289-2.847 8.688-7.247 3.767-41.676 26.38-68.154 45.783-86.581 7.746-6.511 14.561-9.218 18.508-7.144 4.809,2.526 8.387,13.209 5.547,28.035l-9.046,47.224c-0.004,0.022-0.008,0.044-0.013,0.066-2.832,14.786-15.835,33.234-43.161,36.565-4.386,0.535-7.508,4.523-6.974,8.909 0.535,4.386 4.519,7.51 8.909,6.974 12.862-1.568 24.362-6.135 33.665-12.976l-2.624,13.7c-1.062,5.545-4.828,9.81-10.075,11.407-2.146,0.654-3.92,2.179-4.888,4.204s-1.041,4.363-0.2,6.444c5.072,12.565 7.375,25.688 7.072,38.649-0.066,0.268-0.119,0.542-0.158,0.822-2.192,15.689-16.194,32.957-42.533,36.167-4.386,0.535-7.508,4.523-6.974,8.909 0.535,4.386 4.528,7.512 8.909,6.974 11.168-1.361 21.314-4.973 29.846-10.312-5.218,10.122-12.255,19.513-21.005,27.712l-6.612,6.196h-56.615zm-55.28-35.008c-20.326,0-34.522,8.146-34.522,19.809v13.83c0,2.807 1.472,5.409 3.877,6.856l22.646,13.619v18.355l-17.947,3.111c-4.354,0.754-7.271,4.895-6.517,9.249 0.755,4.354 4.904,7.267 9.249,6.516l23.215-4.023 23.212,4.023c0.462,0.08 0.922,0.119 1.376,0.119 3.818,0 7.198-2.744 7.873-6.635 0.754-4.353-2.163-8.494-6.517-9.249l-17.944-3.11v-18.355l22.645-13.619c2.405-1.447 3.877-4.048 3.877-6.855v-13.83c-0.001-11.666-14.196-19.811-34.523-19.811zm18.522,29.115l-18.521,11.139-18.522-11.139v-8.525c1.475-1.443 7.641-4.589 18.522-4.589 10.881,0 17.047,3.146 18.521,4.589v8.525zm49.106-80.803v5.047c0,4.418-3.582,8-8,8s-8-3.582-8-8v-5.047c0-4.418 3.582-8 8-8s8,3.582 8,8z"/>
</svg>
