<?xml version='1.0' encoding='iso-8859-1'?>
<svg version="1.1" xmlns="http://www.w3.org/2000/svg" viewBox="0 0 405.973 405.973" xmlns:xlink="http://www.w3.org/1999/xlink" enable-background="new 0 0 405.973 405.973">
  <path d="m141.654,214.105v5.045c0,4.418-3.582,8-8,8s-8-3.582-8-8v-5.045c0-4.418 3.582-8 8-8s8,3.581 8,8zm-50.363-57.041c-2.519,3.63-1.619,8.615 2.011,11.134 1.391,0.965 2.98,1.429 4.555,1.428 2.533,0 5.025-1.2 6.579-3.439 11.236-16.19 10.634-37.49-1.498-53.001-0.507-0.653-3.85-5.288-7.389-10.193-34.225-47.445-37.139-50.622-39.344-52.153-3.628-2.519-8.613-1.62-11.134,2.01-2.369,3.412-1.715,8.021 1.387,10.655 3.795,4.043 27.231,36.533 36.115,48.847 4.932,6.837 7.138,9.893 7.763,10.69 7.785,9.956 8.169,23.628 0.955,34.022zm221.484,12.562c1.574,0 3.164-0.463 4.554-1.428 3.63-2.519 4.53-7.503 2.011-11.133-7.213-10.395-6.828-24.067 0.959-34.022 0.622-0.795 2.81-3.826 7.7-10.604 8.898-12.336 32.376-44.885 36.176-48.933 3.102-2.633 3.755-7.243 1.386-10.655-2.521-3.63-7.506-4.529-11.134-2.01-2.208,1.533-5.126,4.714-39.405,52.238-3.51,4.866-6.826,9.463-7.326,10.107-12.133,15.511-12.736,36.811-1.5,53.001 1.554,2.239 4.046,3.44 6.579,3.439zm9.477,49.844c-8.074,21.238-25.845,34.961-45.273,34.961-19.43,0-37.202-13.723-45.275-34.961-0.696-1.831-0.696-3.854 0-5.686 8.074-21.24 25.846-34.964 45.275-34.964 19.428,0 37.199,13.724 45.273,34.964 0.696,1.832 0.696,3.855 0,5.686zm-16.139-2.842c-6.055-13.344-17.234-21.807-29.134-21.807-11.901,0-23.082,8.463-29.136,21.807 6.054,13.342 17.234,21.804 29.136,21.804 11.901-0.001 23.08-8.463 29.134-21.804zm99.86,111.527c0,4.418-3.582,8-8,8h-95.005c-1.262,2.188-2.543,4.357-3.848,6.499l93.047,40.363c4.053,1.758 5.914,6.47 4.156,10.523-1.309,3.017-4.252,4.818-7.343,4.818-1.063,0-2.143-0.213-3.18-0.663l-95.646-41.491c-15.304,21.038-34.773,36.763-65.344,36.763h-38.987c-31.598,0-51.417-16.732-66.999-38.841l-98.603,43.547c-4.042,1.787-8.765-0.044-10.55-4.086-1.785-4.042 0.044-8.765 4.086-10.55l96.288-42.525c-0.86-1.441-1.712-2.896-2.555-4.358h-99.49c-4.418,0-8-3.582-8-8s3.582-8 8-8h90.655c-0.619-1.15-1.237-2.302-1.853-3.451-3.87-7.212-7.872-14.67-12.061-21.882-3.579-6.161-6.676-11.355-9.409-15.938-18.903-31.698-19.263-33.231-19.263-82.01v-0.232c0-0.11 0-0.221 0-0.332-23.833-6.523-42.044-12.884-42.834-36.45-0.138-4.115 1.305-7.97 2.701-11.698 1.653-4.415 3.214-8.584 1.997-12.346-3.512-10.848-7.088-32.273-8.696-52.102-0.19-2.341-4.4-57.507 17.583-72.375 5.034-3.404 13.546-6.213 25.513-0.247 15.75,7.851 45.953,35.202 80.284,86.664 8.349-2.178 16.94-3.279 25.617-3.279h94.163c8.739,0 17.389,1.117 25.793,3.325 34.34-51.486 64.556-78.853 80.314-86.709 11.967-5.964 20.479-3.158 25.513,0.246 21.981,14.865 17.775,70.033 17.585,72.375-1.609,19.834-5.186,41.259-8.697,52.103-1.217,3.761 0.344,7.931 1.998,12.346 1.395,3.728 2.839,7.582 2.701,11.697-0.793,23.637-19.115,29.965-43.043,36.507 0,0.092 0,0.184 0,0.275v2.948c0.008,46.718-0.356,48.212-19.505,79.919-2.676,4.431-5.709,9.453-9.193,15.36-4.429,7.51-8.632,15.292-12.698,22.818-0.444,0.822-0.889,1.646-1.334,2.469h86.141c4.419,0 8.001,3.582 8.001,8zm-93.891-41.414c3.526-5.979 6.583-11.04 9.279-15.504 17.209-28.495 17.209-28.495 17.202-71.645 0,0-0.069-6.79-0.204-8.76-0.265-3.872 2.287-7.375 6.053-8.311 0.481-0.12 0.955-0.24 1.419-0.365 29.723-8.024 35.408-11.652 35.784-22.833 0.032-0.941-0.966-3.605-1.694-5.549-2.183-5.83-5.172-13.813-2.236-22.886 2.679-8.271 6.277-27.574 7.972-48.468 1.632-20.134-1.144-51.432-10.601-57.827-0.902-0.61-3.296-2.229-9.411,0.819-1.28,0.638-31.879,16.434-77.335,86.109-1.982,3.036-5.757,4.36-9.199,3.229-4.72-1.552-9.55-2.686-14.448-3.393-16.693,4.776-31.176,31.204-31.816,58.383-0.104,4.417-3.793,7.902-8.186,7.809-4.417-0.104-7.914-3.769-7.809-8.186 0.543-23.071 9.078-44.857 21.672-58.885h-66.414c12.594,14.028 21.129,35.814 21.673,58.885 0.104,4.417-3.392,8.083-7.809,8.187-4.394,0.114-8.082-3.392-8.187-7.809-0.641-27.179-15.124-53.607-31.816-58.383-4.845,0.7-9.622,1.816-14.292,3.342-3.439,1.124-7.206-0.201-9.185-3.232-45.44-69.634-76.021-85.417-77.3-86.055-6.116-3.049-8.509-1.429-9.412-0.819-9.458,6.397-12.233,37.694-10.599,57.827 1.695,20.889 5.293,40.193 7.972,48.468 2.937,9.072-0.053,17.055-2.235,22.884-0.728,1.945-1.726,4.608-1.694,5.551 0.375,11.181 6.061,14.809 35.787,22.834 0.397,0.107 0.813,0.215 1.234,0.321 3.752,0.945 6.291,4.44 6.028,8.301-0.137,2.011-0.206,6.095-0.206,6.095 0,45.3 0,45.3 17.005,73.815 2.755,4.62 5.878,9.856 9.502,16.097 4.325,7.445 8.391,15.024 12.324,22.354 0.099,0.184 0.199,0.37 0.297,0.554 3.061-8.311 8.608-15.795 16.42-21.216 3.631-2.519 8.616-1.618 11.133,2.011 2.519,3.629 1.619,8.614-2.011,11.133-6.516,4.522-10.578,11.281-11.871,18.533h7.432c4.418,0 8,3.582 8,8s-3.582,8-8,8h-5.714c0.53,1.28 3.051,5.546 3.092,5.609 13.802,20.704 29.978,35.204 56.144,35.204h38.987c25.995,0 42.05-14.391 55.776-34.916 0.102-0.174 2.5-4.038 3.27-5.897h-10.184c-4.418,0-8-3.582-8-8s3.582-8 8-8h11.902c-1.293-7.252-5.356-14.011-11.872-18.533-3.629-2.519-4.53-7.504-2.011-11.134 2.52-3.63 7.502-4.53 11.134-2.011 7.83,5.435 13.386,12.942 16.441,21.276 4.081-7.553 8.3-15.355 12.817-23.013zm-55.579,48.7c2.637,3.545 1.9,8.557-1.646,11.193-13.716,10.2-34.435,11.213-49.542,3.038-6.721,3.637-14.553,5.456-22.384,5.456-9.773,0-19.542-2.831-27.157-8.494-3.545-2.637-4.282-7.648-1.646-11.193 2.637-3.545 7.648-4.282 11.193-1.646 8.54,6.351 22.345,7.021 31.996,2.008v-9.833l-33.001-30.47c-3.011-2.78-3.435-7.384-0.981-10.667l9.884-13.227c1.51-2.021 3.885-3.211 6.408-3.211h8.909c1.956,0 3.845,0.717 5.308,2.015 3.164,2.806 7.238,4.351 11.472,4.351 4.233,0 8.307-1.545 11.473-4.352 1.463-1.297 3.352-2.014 5.307-2.014h8.906c2.523,0 4.898,1.19 6.408,3.211l9.885,13.228c2.453,3.282 2.029,7.887-0.981,10.667l-32.996,30.465v9.839c9.649,5.007 23.453,4.338 31.991-2.011 3.547-2.635 8.558-1.899 11.194,1.647zm-51.186-23.863l24.847-22.941-3.169-4.241h-2.095c-5.669,4.125-12.511,6.366-19.582,6.366-7.072,0-13.915-2.242-19.583-6.366h-2.098l-3.168,4.24 24.848,22.942zm-71.663-57.147c-19.43,0-37.201-13.723-45.274-34.961-0.696-1.831-0.696-3.854 0-5.686 8.074-21.24 25.845-34.964 45.274-34.964s37.2,13.724 45.274,34.964c0.696,1.831 0.696,3.854 0,5.685-8.073,21.239-25.844,34.962-45.274,34.962zm29.135-37.803c-6.054-13.344-17.234-21.807-29.135-21.807s-23.081,8.463-29.135,21.807c6.054,13.342 17.234,21.804 29.135,21.804s23.081-8.463 29.135-21.804zm114.19-10.523c-4.418,0-8,3.582-8,8v5.045c0,4.418 3.582,8 8,8s8-3.582 8-8v-5.045c0-4.419-3.582-8-8-8z"/>
</svg>
